<?xml version="1.0"?><svg width="698.12543" height="418.19485" xmlns="http://www.w3.org/2000/svg">
 <title>panther silhouette</title>
 <metadata id="metadata7">image/svg+xmlTiger jumpingvector image of a tiger: jumping up, side view, black-whiteinkscape2008-03-21telemachos</metadata>
 <g>
  <title>Layer 1</title>
  <g id="layer2" display="inline">
   <path id="path2386" d="m205.666977,217.919098c-5.367401,8.375137 -26.421616,41.130341 -30.984802,53.322083c-1.856537,4.960175 -2.259644,12.638519 -15.111877,18.297394c-12.852249,5.658875 -19.725998,1.682678 -20.163147,7.528229c-0.437149,5.845581 -8.831207,39.428986 -9.395721,40.364197c-0.564499,0.935242 6.061813,25.537292 9.408554,29.426758c3.346741,3.889465 13.378281,10.161743 16.496445,7.027039c4.087326,-4.109039 5.217987,-11.195343 2.94841,-14.17392c-2.269577,-2.978577 -5.675415,-10.097107 -5.841888,-11.438538c-0.166489,-1.341461 -0.321899,-17.433838 3.705658,-19.254547c4.027557,-1.82074 60.129456,-17.945251 70.621735,-23.198395c10.492279,-5.253143 60.622253,-47.333344 76.231934,-52.70871c15.60968,-5.375366 60.351471,-4.998962 84.585938,-7.788116c40.873993,-4.723373 70.813843,-24.114182 79.788635,-31.88916c13.335968,-11.55304 31.748383,1.436218 44.81842,-2.696625c13.069946,-4.132767 34.361877,-9.628021 47.637512,-15.988327c13.275635,-6.360306 30.015381,-19.537872 36.787659,-21.862656c6.772339,-2.324829 15.660461,-2.224869 22.509399,-2.78981c6.848938,-0.564941 12.930481,-12.796722 13.444275,-16.882431c0.513794,-4.085724 -2.600891,-14.559174 -4.819214,-17.35318c-2.218323,-2.793961 -12.307495,-4.572845 -13.56842,-6.109894c-1.710815,-2.085625 -14.3078,8.227631 -16.385559,8.165756c-2.077698,-0.06189 -6.920288,2.429825 -7.677185,3.414215c-0.756897,0.984406 -5.708923,8.379868 -10.416199,9.978943c-4.707275,1.599075 -9.029175,0.13385 -11.671448,1.007172c-2.642151,0.873337 -33.630066,2.872391 -37.670349,3.905457c-4.040161,1.033081 -1.154297,0.295197 -6.502747,1.069595c-4.449219,-6.37558 -14.130371,-16.043701 -14.819977,-17.193314c9.204559,-11.745148 9.55368,-9.931412 11.106598,-15.469109c4.526978,2.203659 11.157654,3.078529 12.414001,6.118477c1.256348,3.039963 1.011597,8.836319 6.963074,6.523697c5.951538,-2.312653 12.865479,-7.837143 13.302124,-10.71682c0.436584,-2.879684 0.449829,-5.057968 -0.986755,-4.295181c-1.436646,0.762756 -14.13092,-2.935959 -17.391724,-4.863403c-3.170349,-1.873962 -5.465088,-5.327057 -4.41272,-8.957321c1.052429,-3.630295 2.533997,-3.710503 5.176208,-4.583824c2.642212,-0.873322 6.899292,-0.096359 9.183105,0.176231c2.876831,0.343399 7.095642,4.448341 18.036499,1.144852c7.151917,-2.159424 6.93219,-4.14991 6.454407,-7.745728c-0.963135,-7.248047 -16.346069,-17.631012 -18.654175,-20.006607c-2.308105,-2.375549 -6.657898,-8.127693 -8.770447,-9.815063c-7.362915,-5.880741 -14.30542,-9.876114 -26.239319,-8.943714c-2.589294,-7.839767 -6.307068,-16.775028 -12.425079,-15.803829c-6.11795,0.971191 -10.76178,6.508381 -8.838959,11.948242c-6.836304,1.352577 -20.253571,10.912567 -24.101959,14.86235c-3.848358,3.949776 -27.130585,24.731735 -31.248016,26.970848c-4.117401,2.239113 -15.302063,6.483017 -19.432709,10.900391c-4.130615,4.417412 -16.459656,24.573578 -37.790405,34.575272c-21.330719,10.001678 -49.560577,14.45192 -62.232544,16.308075c-12.671997,1.856155 -104.325729,14.614944 -104.325729,14.614944c0,0 -23.149414,-3.966644 -40.670334,2.688293c-17.520935,6.654922 -70.199448,28.428741 -88.872002,20.549332c-18.672554,-7.879395 -25.031467,-21.873108 -15.574516,-46.435547c9.456932,-24.562439 -15.300442,-2.414703 -15.852802,2.274048c-0.552361,4.688751 -7.63665,29.633102 1.01828,42.24884c8.654934,12.615768 31.007214,27.067566 69.562313,18.988617c38.555092,-8.078949 54.100838,-14.426575 64.745811,-13.194092c-7.606964,7.481171 -28.288223,42.822327 -42.30748,47.988724c-14.019302,5.166412 -22.536377,10.112228 -29.218811,12.018631c-6.68248,1.906403 -15.727631,19.048065 -17.947586,25.151733c-2.219925,6.103699 -4.273399,13.548889 1.77845,23.469055c6.051842,9.920166 11.403183,13.386261 17.9748,9.001984c9.072357,-6.052704 -4.826538,-20.272614 1.279297,-24.997345c6.10582,-4.72467 22.678024,-13.31192 36.953629,-17.555298c14.275604,-4.243378 15.237579,-4.48941 15.237579,-4.48941m433.508865,-137.601608c2.163574,-7.128372 -5.702576,-20.268456 -8.608459,-22.404442c-2.905884,-2.135963 -13.614075,-0.804459 -14.686646,-2.195045c-1.072693,-1.39061 -11.6026,13.54203 -13.624146,14.006538c-2.021545,0.4645 -6.036743,1.819893 -6.497192,2.960632c-0.46051,1.140724 -3.211731,9.525337 -7.315186,12.255806c-4.103455,2.730484 -8.421326,2.891327 -10.98468,3.916489c-8.403198,3.360657 -27.088318,7.043274 -27.088318,7.043274" stroke-dashoffset="0" stroke-miterlimit="4" marker-end="none" marker-mid="none" marker-start="none" stroke-linecap="round" stroke-width="8" stroke="#000000" fill-rule="evenodd" fill="#000000"/>
   <g id="g2434">
    <path id="path2829" d="m504.458893,122.110977l-5.733215,0.276489l1.359772,-6.552856c0,0 -5.735229,0.343437 -5.735229,0.343437l0.957336,-5.641701l-5.385742,0.518677c0,0 2.305084,-6.379227 2.305084,-6.379227l-4.903107,-0.802094l2.103149,-4.038475l-1.486115,-4.397804l0.978546,-7.724991" stroke-linejoin="round" stroke-linecap="round" stroke-width="4" stroke="#000000" fill-rule="evenodd" fill="#000000"/>
    <path id="path3149" d="m624.254517,134.69191c-1.592773,3.629959 -6.271851,7.355469 -8.063782,7.642029" stroke-dashoffset="0" stroke-miterlimit="4" marker-end="none" marker-mid="none" marker-start="none" stroke-linecap="round" stroke-width="4" stroke="#000000" fill-rule="evenodd" fill="#000000"/>
    <path d="m633.26239,143.823227c-2.829224,2.853531 -8.579834,4.747803 -10.361511,4.406967" id="path3151" stroke-dashoffset="0" stroke-miterlimit="4" marker-end="none" marker-mid="none" marker-start="none" stroke-linecap="round" stroke-width="4" stroke="#000000" fill-rule="evenodd" fill="#000000"/>
    <path id="path3153" d="m632.983093,159.740524c-4.001221,0.878403 -9.885193,-0.591599 -11.173828,-1.820282" stroke-dashoffset="0" stroke-miterlimit="4" marker-end="none" marker-mid="none" marker-start="none" stroke-linecap="round" stroke-width="4" stroke="#000000" fill-rule="evenodd" fill="#000000"/>
    <path id="path3155" d="m545.557861,80.385849c-3.012512,-2.343872 -4.033936,-4.198273 -6.769653,-3.725456c-1.733398,0.299561 -3.583862,3.009026 -3.583862,3.009026" stroke-dashoffset="0" stroke-miterlimit="4" marker-end="none" marker-mid="none" marker-start="none" stroke-linecap="round" stroke-width="4" stroke="#000000" fill-rule="evenodd" fill="#000000"/>
   </g>
   <g id="g2448">
    <path id="path3136" d="m548.581482,106.289902c-7.391479,-1.148293 -14.008545,-0.270195 -14.149231,3.039589c-0.140869,3.309776 5.913086,8.645966 8.799316,9.18634c2.886169,0.540382 5.068359,0.742996 5.068359,-0.202652c0,-0.945641 1.651489,-7.542061 3.871704,-6.88974c0.939392,0.276024 -0.35199,8.240654 -0.703918,9.591614c-0.35199,1.350906 -12.389465,-0.337753 -14.219788,-1.756226c-1.8302,-1.418457 -10.629578,-9.524055 -9.010437,-12.968925c1.61908,-3.44487 7.168152,-5.697105 9.350342,-4.954063c2.182312,0.742989 10.641663,3.332939 13.246277,3.873314c2.604675,0.540375 4.998047,2.229034 6.476318,2.093956c1.478333,-0.135086 -1.019409,7.386253 -2.920349,6.778648c-0.668396,-0.213638 -1.246277,-5.91214 -0.186951,-6.114777c0.345093,-0.066032 -5.621643,-1.609543 -5.621643,-1.677078z" stroke-dashoffset="0" stroke-miterlimit="4" marker-end="none" marker-mid="none" marker-start="none" stroke-linecap="round" stroke-width="4" fill-rule="evenodd" fill="#000000"/>
    <g id="g2441">
     <path id="path3139" d="m593.556519,124.554237c1.926575,4.007179 0.830078,9.164162 -2.449158,11.518456c-3.279236,2.354279 -7.49939,1.014328 -9.425964,-2.992844c-1.926575,-4.007187 -0.830078,-9.164162 2.449158,-11.51844c3.279236,-2.354279 7.49939,-1.014336 9.425964,2.992828z" stroke-dashoffset="0" stroke-miterlimit="4" stroke-linejoin="bevel" stroke-linecap="round" stroke-width="4" fill-rule="nonzero" fill="#000000"/>
     <path d="m594.550842,113.993896c1.235901,1.15345 1.095459,2.908623 -0.31366,3.920265c-1.409119,1.01165 -3.553345,0.89669 -4.789246,-0.25676c-1.235901,-1.15345 -1.095459,-2.908615 0.31366,-3.920265c1.409119,-1.01165 3.553345,-0.89669 4.789246,0.25676z" id="path3141" stroke-dashoffset="0" stroke-miterlimit="4" stroke-linejoin="bevel" stroke-linecap="round" stroke-width="4" fill-rule="nonzero" fill="#000000"/>
     <path id="path3143" d="m599.926697,118.388031c1.235901,1.153442 1.095459,2.908592 -0.31366,3.920242c-1.409119,1.01165 -3.553284,0.896706 -4.789185,-0.256737c-1.235901,-1.153435 -1.095459,-2.908585 0.31366,-3.920235c1.409119,-1.01165 3.553284,-0.896706 4.789185,0.256729z" stroke-dashoffset="0" stroke-miterlimit="4" stroke-linejoin="bevel" stroke-linecap="round" stroke-width="4" fill-rule="nonzero" fill="#000000"/>
     <path d="m604.112671,126.320572c0.580017,1.401466 -0.317139,2.928253 -2.003784,3.410172c-1.686707,0.481918 -3.52417,-0.263519 -4.104187,-1.664978c-0.580017,-1.401466 0.317139,-2.928253 2.003784,-3.410179c1.686707,-0.481918 3.52417,0.263527 4.104187,1.664986z" id="path3145" stroke-dashoffset="0" stroke-miterlimit="4" stroke-linejoin="bevel" stroke-linecap="round" stroke-width="4" fill-rule="nonzero" fill="#000000"/>
     <path id="path3147" d="m604.510925,132.147583c0.580017,1.401474 -0.317139,2.928284 -2.003845,3.410202c-1.686646,0.481934 -3.52417,-0.263519 -4.104187,-1.664993c-0.580017,-1.401474 0.317139,-2.928284 2.003845,-3.410202c1.686646,-0.481934 3.52417,0.263519 4.104187,1.664993z" stroke-dashoffset="0" stroke-miterlimit="4" stroke-linejoin="bevel" stroke-linecap="round" stroke-width="4" fill-rule="nonzero" fill="#000000"/>
    </g>
    <path d="m543.117554,81.608307c-0.362488,1.102257 -1.918152,1.787712 -3.474609,1.531013c-1.556519,-0.256699 -2.524475,-1.358337 -2.161987,-2.460602c0.362488,-1.102257 1.918152,-1.787712 3.474609,-1.531006c1.556519,0.256691 2.524475,1.358337 2.161987,2.460594z" id="path3157" stroke-dashoffset="0" stroke-miterlimit="4" stroke-linejoin="bevel" stroke-linecap="round" stroke-width="4" fill-rule="nonzero" fill="#000000"/>
   </g>
  </g>
  <path fill="#000000" stroke="#000000" stroke-width="5" stroke-dasharray="null" stroke-linejoin="null" stroke-linecap="null" d="m526.874573,157.805145l67.125427,-22.805145l-13,-4l-61,19l6.874573,7.805145z" id="svg_2"/>
 </g>
</svg>